<?xml version="1.0" encoding="UTF-8"?>
<svg width="1024px" height="1024px" viewBox="0 0 1024 1024" version="1.1" xmlns="http://www.w3.org/2000/svg" xmlns:xlink="http://www.w3.org/1999/xlink">
    <title>PCL.Neo Logo</title>
    <defs>
        <filter x="-1.3%" y="-0.6%" width="102.6%" height="101.8%" filterUnits="objectBoundingBox" id="filter-1">
            <feOffset dx="0" dy="2" in="SourceAlpha" result="shadowOffsetOuter1"></feOffset>
            <feGaussianBlur stdDeviation="2" in="shadowOffsetOuter1" result="shadowBlurOuter1"></feGaussianBlur>
            <feColorMatrix values="0 0 0 0 0   0 0 0 0 0   0 0 0 0 0  0 0 0 0.5 0" type="matrix" in="shadowBlurOuter1" result="shadowMatrixOuter1"></feColorMatrix>
            <feMerge>
                <feMergeNode in="shadowMatrixOuter1"></feMergeNode>
                <feMergeNode in="SourceGraphic"></feMergeNode>
            </feMerge>
        </filter>
        <linearGradient x1="100%" y1="49.9993266%" x2="16%" y2="49.9993266%" id="linearGradient-2">
            <stop stop-color="#E2773A" offset="0%"></stop>
            <stop stop-color="#FDB662" offset="100%"></stop>
        </linearGradient>
        <linearGradient x1="80.3350273%" y1="24.164091%" x2="20.3899158%" y2="74.2228409%" id="linearGradient-3">
            <stop stop-color="#FEB462" offset="0%"></stop>
            <stop stop-color="#FFD49C" offset="100%"></stop>
        </linearGradient>
        <filter x="-1.3%" y="-0.6%" width="102.6%" height="101.8%" filterUnits="objectBoundingBox" id="filter-4">
            <feOffset dx="0" dy="2" in="SourceAlpha" result="shadowOffsetOuter1"></feOffset>
            <feGaussianBlur stdDeviation="2" in="shadowOffsetOuter1" result="shadowBlurOuter1"></feGaussianBlur>
            <feColorMatrix values="0 0 0 0 0   0 0 0 0 0   0 0 0 0 0  0 0 0 0.5 0" type="matrix" in="shadowBlurOuter1" result="shadowMatrixOuter1"></feColorMatrix>
            <feMerge>
                <feMergeNode in="shadowMatrixOuter1"></feMergeNode>
                <feMergeNode in="SourceGraphic"></feMergeNode>
            </feMerge>
        </filter>
        <linearGradient x1="61.3521551%" y1="20.8252871%" x2="26.1444509%" y2="50%" id="linearGradient-5">
            <stop stop-color="#FDB662" offset="0%"></stop>
            <stop stop-color="#E2773A" offset="100%"></stop>
        </linearGradient>
        <linearGradient x1="19.7070595%" y1="75.8267867%" x2="79.5720896%" y2="25.7878265%" id="linearGradient-6">
            <stop stop-color="#FFAF61" offset="0%"></stop>
            <stop stop-color="#FFD49B" offset="100%"></stop>
        </linearGradient>
        <linearGradient x1="25.130035%" y1="9.16399227%" x2="100.385597%" y2="103.839206%" id="linearGradient-7">
            <stop stop-color="#FEB562" offset="0%"></stop>
            <stop stop-color="#FF8F4F" offset="100%"></stop>
        </linearGradient>
        <path d="M61.95965,3.27334 C76.2999967,3.27334 88.7698633,5.65040833 99.36925,10.404545 C109.968637,15.1586817 118.113018,21.9002033 123.802395,30.62911 C129.491772,39.3580167 132.33646,49.56772 132.33646,61.25822 C132.33646,72.94872 129.491772,83.1584233 123.802395,91.88733 C118.113018,100.616237 109.968637,107.357758 99.36925,112.111895 C88.7698633,116.866032 76.2999967,119.2431 61.95965,119.2431 L39.98151,119.2431 L39.98151,174.42226 L0,174.42226 L0,3.27334 L61.95965,3.27334 Z M57.51726,85.57446 C67.1814067,85.57446 75.05301,83.70398 81.13207,79.96302 C87.21113,76.22206 90.25066,69.9871267 90.25066,61.25822 C90.25066,52.6851867 87.1721617,46.4892217 81.015165,42.670325 C74.8581683,38.8514283 67.0255333,36.94198 57.51726,36.94198 L39.98151,36.94198 L39.98151,85.57446 L57.51726,85.57446 Z" id="path-8"></path>
        <filter x="-74.4%" y="-56.4%" width="248.9%" height="215.1%" filterUnits="objectBoundingBox" id="filter-9">
            <feOffset dx="0" dy="2" in="SourceAlpha" result="shadowOffsetOuter1"></feOffset>
            <feGaussianBlur stdDeviation="32.5" in="shadowOffsetOuter1" result="shadowBlurOuter1"></feGaussianBlur>
            <feColorMatrix values="0 0 0 0 0.916355299   0 0 0 0 0.401568963   0 0 0 0 0.401568963  0 0 0 0.5 0" type="matrix" in="shadowBlurOuter1"></feColorMatrix>
        </filter>
        <path d="M239.455145,140.75362 C254.886605,140.75362 266.109485,132.648207 273.123785,116.43738 L306.558615,136.07742 C304.064642,143.55934 299.778125,150.456735 293.699065,156.769605 C287.620005,163.082475 280.02118,168.10939 270.90259,171.85035 C261.784,175.59131 251.613265,177.46179 240.390385,177.46179 C224.958925,177.46179 210.852388,173.798767 198.070775,166.47272 C185.289162,159.146673 175.157395,148.742128 167.675475,135.259085 C160.193555,121.776042 156.452595,106.227677 156.452595,88.61399 C156.452595,71.0003033 160.193555,55.4909067 167.675475,42.0858 C175.157395,28.6806933 185.289162,18.3151167 198.070775,10.98907 C210.852388,3.66302333 224.958925,0 240.390385,0 C251.613265,0 261.784,1.87048 270.90259,5.61144 C280.02118,9.3524 287.620005,14.379315 293.699065,20.692185 C299.778125,27.005055 304.064642,33.90245 306.558615,41.38437 L273.123785,61.02441 C266.109485,44.8135833 254.886605,36.70817 239.455145,36.70817 C231.817352,36.70817 224.919957,38.7734917 218.76296,42.904135 C212.605963,47.0347783 207.695953,53.0359017 204.03293,60.907505 C200.369907,68.7791083 198.538395,78.0146033 198.538395,88.61399 C198.538395,99.2133767 200.369907,108.48784 204.03293,116.43738 C207.695953,124.38692 212.605963,130.427012 218.76296,134.557655 C224.919957,138.688298 231.817352,140.75362 239.455145,140.75362 Z" id="path-10"></path>
        <filter x="-65.6%" y="-54.4%" width="231.2%" height="211.0%" filterUnits="objectBoundingBox" id="filter-11">
            <feOffset dx="0" dy="2" in="SourceAlpha" result="shadowOffsetOuter1"></feOffset>
            <feGaussianBlur stdDeviation="32.5" in="shadowOffsetOuter1" result="shadowBlurOuter1"></feGaussianBlur>
            <feColorMatrix values="0 0 0 0 0.916355299   0 0 0 0 0.401568963   0 0 0 0 0.401568963  0 0 0 0.5 0" type="matrix" in="shadowBlurOuter1"></feColorMatrix>
        </filter>
        <polygon id="path-12" points="337.68905 3.27334 377.67056 3.27334 377.67056 138.88314 452.72357 138.88314 452.72357 174.42226 337.68905 174.42226"></polygon>
        <filter x="-85.6%" y="-56.4%" width="271.3%" height="215.1%" filterUnits="objectBoundingBox" id="filter-13">
            <feOffset dx="0" dy="2" in="SourceAlpha" result="shadowOffsetOuter1"></feOffset>
            <feGaussianBlur stdDeviation="32.5" in="shadowOffsetOuter1" result="shadowBlurOuter1"></feGaussianBlur>
            <feColorMatrix values="0 0 0 0 0.916355299   0 0 0 0 0.401568963   0 0 0 0 0.401568963  0 0 0 0.5 0" type="matrix" in="shadowBlurOuter1"></feColorMatrix>
        </filter>
        <linearGradient x1="0%" y1="50%" x2="100%" y2="50%" id="linearGradient-14">
            <stop stop-color="#FF9A58" offset="0%"></stop>
            <stop stop-color="#FFCB68" offset="100%"></stop>
        </linearGradient>
        <polygon id="path-15" points="256.07 225.88 116.5 306.46 116.5 464.72 79.32 464.72 79.32 285 112.62 265.77 237.48 193.68"></polygon>
        <filter x="-4.0%" y="-1.8%" width="107.9%" height="105.2%" filterUnits="objectBoundingBox" id="filter-16">
            <feOffset dx="0" dy="2" in="SourceAlpha" result="shadowOffsetOuter1"></feOffset>
            <feGaussianBlur stdDeviation="2" in="shadowOffsetOuter1" result="shadowBlurOuter1"></feGaussianBlur>
            <feColorMatrix values="0 0 0 0 0   0 0 0 0 0   0 0 0 0 0  0 0 0 0.5 0" type="matrix" in="shadowBlurOuter1"></feColorMatrix>
        </filter>
        <linearGradient x1="0%" y1="50%" x2="99.142264%" y2="50%" id="linearGradient-17">
            <stop stop-color="#FFCB68" offset="0%"></stop>
            <stop stop-color="#FF9356" offset="100%"></stop>
        </linearGradient>
        <polygon id="path-18" points="575.43 733.47 715 652.89 715 494.63 752.18 494.63 752.18 674.35 718.88 693.58 594.02 765.67"></polygon>
        <filter x="-4.0%" y="-1.8%" width="107.9%" height="105.2%" filterUnits="objectBoundingBox" id="filter-19">
            <feOffset dx="0" dy="2" in="SourceAlpha" result="shadowOffsetOuter1"></feOffset>
            <feGaussianBlur stdDeviation="2" in="shadowOffsetOuter1" result="shadowBlurOuter1"></feGaussianBlur>
            <feColorMatrix values="0 0 0 0 0   0 0 0 0 0   0 0 0 0 0  0 0 0 0.5 0" type="matrix" in="shadowBlurOuter1"></feColorMatrix>
        </filter>
        <linearGradient x1="-36.3769051%" y1="61.0760379%" x2="103.029265%" y2="40.0181077%" id="linearGradient-20">
            <stop stop-color="#DD671E" offset="0%"></stop>
            <stop stop-color="#FF7F36" offset="100%"></stop>
        </linearGradient>
        <rect id="path-21" x="0" y="0" width="329" height="147" rx="73.5"></rect>
        <filter x="-9.1%" y="-20.4%" width="118.2%" height="140.8%" filterUnits="objectBoundingBox" id="filter-22">
            <feOffset dx="0" dy="0" in="SourceAlpha" result="shadowOffsetOuter1"></feOffset>
            <feGaussianBlur stdDeviation="10" in="shadowOffsetOuter1" result="shadowBlurOuter1"></feGaussianBlur>
            <feColorMatrix values="0 0 0 0 0.723930027   0 0 0 0 0.282048546   0 0 0 0 0.120963079  0 0 0 0.227573208 0" type="matrix" in="shadowBlurOuter1"></feColorMatrix>
        </filter>
    </defs>
    <g id="页面-1" stroke="none" stroke-width="1" fill="none" fill-rule="evenodd">
        <g id="编组-3备份-6">
            <rect id="矩形备份-2" fill-opacity="0" fill="#FFFFFF" x="0" y="0" width="1024" height="1024"></rect>
            <g id="编组-5" transform="translate(96, 32)">
                <g id="画板-1" fill-rule="nonzero">
                    <polygon id="路径" fill="#C9682A" points="802.37 703.25 802.37 256.75 415.69 33.5 29.01 256.75 29.01 703.25 415.69 926.5"></polygon>
                    <g id="右下边框" filter="url(#filter-1)" transform="translate(289.75, 177.02)">
                        <polygon id="路径" fill="url(#linearGradient-2)" points="513.19 79.56 513.19 526.71 125.94 750.29 53.06 708.21 0.3 677.75 5.68434189e-14 676.93 47.46 668.48 68.87 680.84 126.51 714.12 482.51 508.59 482.51 97.52 426.18 65 426.17 65 404.03 52.21 388 7.93 388.86 7.78 441.62 38.24"></polygon>
                        <polygon id="路径" fill="url(#linearGradient-3)" points="541.63 542.98 125.94 782.98 38.91 732.73 15.26 719.08 0.3 677.75 53.06 708.21 125.94 750.29 513.19 526.71 513.19 79.56 441.62 38.24 388.86 7.78 432.54 2.84217094e-14 455.92 13.49 541.63 62.98"></polygon>
                    </g>
                    <g id="左上边框" filter="url(#filter-4)">
                        <polygon id="路径" fill="url(#linearGradient-5)" points="541.06 106.11 494.81 114.35 472.59 101.52 416.26 69 60.27 274.54 60.27 685.61 115.1 717.26 136.43 729.58 152.87 775.01 152.13 775.14 99.29 744.64 28.44 703.73 28.44 256.58 415.69 33 488.04 74.77 540.73 105.19"></polygon>
                        <polygon id="路径" fill="url(#linearGradient-6)" points="488.04 74.77 415.69 33 28.44 256.58 28.44 703.73 99.29 744.64 152.13 775.14 108.86 782.85 85.14 769.15 0 720 0 240 292.655839 71.034181 415.69 0 502.32 50.02 525.62 63.47 540.73 105.19"></polygon>
                    </g>
                    <polygon id="路径" fill="#E2773A" points="748.19 287.9 415.87 96.03 83.54 287.9 83.54 671.63 415.87 863.5 748.19 671.63"></polygon>
                    <polygon id="路径" fill="url(#linearGradient-7)" points="718.19 654.46 718.19 304.85 415.42 130.05 112.65 304.85 112.65 654.46 415.42 829.26"></polygon>
                    <g id="PCL" transform="translate(194.659, 337.3277)">
                        <g id="形状">
                            <use fill="black" fill-opacity="1" filter="url(#filter-9)" xlink:href="#path-8"></use>
                            <use fill="#FFFFFF" xlink:href="#path-8"></use>
                        </g>
                        <g id="路径">
                            <use fill="black" fill-opacity="1" filter="url(#filter-11)" xlink:href="#path-10"></use>
                            <use fill="#FFFFFF" xlink:href="#path-10"></use>
                        </g>
                        <g id="路径">
                            <use fill="black" fill-opacity="1" filter="url(#filter-13)" xlink:href="#path-12"></use>
                            <use fill="#FFFFFF" xlink:href="#path-12"></use>
                        </g>
                    </g>
                    <g id="路径">
                        <use fill="black" fill-opacity="1" filter="url(#filter-16)" xlink:href="#path-15"></use>
                        <use fill="url(#linearGradient-14)" xlink:href="#path-15"></use>
                    </g>
                    <g id="路径">
                        <use fill="black" fill-opacity="1" filter="url(#filter-19)" xlink:href="#path-18"></use>
                        <use fill="url(#linearGradient-17)" xlink:href="#path-18"></use>
                    </g>
                </g>
                <g id="编组" transform="translate(251, 568)">
                    <g id="矩形">
                        <use fill="black" fill-opacity="1" filter="url(#filter-22)" xlink:href="#path-21"></use>
                        <use fill="url(#linearGradient-20)" fill-rule="evenodd" xlink:href="#path-21"></use>
                    </g>
                    <g id="Neo" transform="translate(76.4098, 34.6711)" fill="#FFFFFF" fill-rule="nonzero">
                        <polygon id="路径" points="13.53697 0 46.34189 43.87164 46.34189 0 61.75625 0 61.75625 72.32892 48.21928 72.32892 15.41436 28.35847 15.41436 72.32892 -1.42108547e-14 72.32892 -1.42108547e-14 0"></polygon>
                        <path d="M98.2547375,19.86081 C102.931744,19.86081 107.065296,20.8653783 110.655393,22.874515 C114.245489,24.8836517 117.028638,27.76561 119.004838,31.52039 C120.981038,35.27517 121.969138,39.6557467 121.969138,44.66212 C121.969138,46.7700667 121.771518,49.00976 121.376278,51.3812 L88.6701675,51.3812 C89.3947742,54.2137533 90.6463675,56.4040417 92.4249475,57.952065 C94.2035275,59.5000883 96.3773475,60.2741 98.9464075,60.2741 C101.054354,60.2741 102.948213,59.78005 104.627983,58.79195 C106.307753,57.80385 107.542878,56.3546367 108.333358,54.44431 L120.091748,61.45982 C118.642534,65.3463467 115.908791,68.3435833 111.890518,70.45153 C107.872244,72.5594767 103.359921,73.61345 98.3535475,73.61345 C93.7424142,73.61345 89.4112425,72.5924133 85.3600325,70.55034 C81.3088225,68.5082667 78.0480925,65.4451567 75.5778425,61.36101 C73.1075925,57.2768633 71.8724675,52.3363633 71.8724675,46.53951 C71.8724675,40.80853 73.1075925,35.9339033 75.5778425,31.91563 C78.0480925,27.8973567 81.2923542,24.8836517 85.3106275,22.874515 C89.3289008,20.8653783 93.6436042,19.86081 98.2547375,19.86081 Z M97.7606875,32.70611 C95.5209942,32.70611 93.6271358,33.3813117 92.0791125,34.731715 C90.5310892,36.0821183 89.3947742,37.9759767 88.6701675,40.41329 L105.665488,40.41329 C105.401994,37.9101033 104.545641,35.9997767 103.096428,34.68231 C101.647214,33.3648433 99.8686342,32.70611 97.7606875,32.70611 Z" id="形状"></path>
                        <path d="M127.441285,46.73713 C127.441285,41.3355167 128.67641,36.5926367 131.14666,32.50849 C133.61691,28.4243433 136.927045,25.29536 141.077065,23.12154 C145.227085,20.94772 149.673535,19.86081 154.416415,19.86081 C159.159295,19.86081 163.589277,20.94772 167.70636,23.12154 C171.823443,25.29536 175.100642,28.4243433 177.537955,32.50849 C179.975268,36.5926367 181.193925,41.3355167 181.193925,46.73713 C181.193925,52.2046167 179.975268,56.963965 177.537955,61.015175 C175.100642,65.066385 171.839912,68.1789 167.755765,70.35272 C163.671618,72.52654 159.225168,73.61345 154.416415,73.61345 C149.607662,73.61345 145.144743,72.52654 141.02766,70.35272 C136.910577,68.1789 133.61691,65.066385 131.14666,61.015175 C128.67641,56.963965 127.441285,52.2046167 127.441285,46.73713 Z M144.041365,46.73713 C144.041365,50.7554033 145.012997,53.9337917 146.95626,56.272295 C148.899523,58.6107983 151.353305,59.78005 154.317605,59.78005 C157.216032,59.78005 159.636877,58.6107983 161.58014,56.272295 C163.523403,53.9337917 164.495035,50.7554033 164.495035,46.73713 C164.495035,42.7188567 163.523403,39.524 161.58014,37.15256 C159.636877,34.78112 157.216032,33.5954 154.317605,33.5954 C151.353305,33.5954 148.899523,34.78112 146.95626,37.15256 C145.012997,39.524 144.041365,42.7188567 144.041365,46.73713 Z" id="形状"></path>
                    </g>
                </g>
            </g>
        </g>
    </g>
</svg>
